<?xml version="1.0" standalone="no"?>
<!DOCTYPE svg PUBLIC "-//W3C//DTD SVG 20010904//EN"
 "http://www.w3.org/TR/2001/REC-SVG-20010904/DTD/svg10.dtd">
<svg version="1.0" xmlns="http://www.w3.org/2000/svg"
 width="192.000000pt" height="192.000000pt" viewBox="0 0 192.000000 192.000000"
 preserveAspectRatio="xMidYMid meet">

<g transform="translate(0.000000,192.000000) scale(0.100000,-0.100000)"
fill="#000000" stroke="none">
<path d="M570 970 l0 -540 70 0 70 0 0 540 0 540 -70 0 -70 0 0 -540z"/>
<path d="M1010 1240 l0 -140 -65 0 -65 0 0 -60 0 -60 65 0 65 0 0 -218 c0
-206 1 -220 23 -262 31 -63 82 -90 169 -90 67 0 148 23 148 41 0 15 -39 87
-51 94 -6 4 -16 2 -22 -4 -19 -19 -74 -13 -95 10 -28 29 -32 61 -32 255 l0
174 90 0 90 0 0 60 0 60 -90 0 -90 0 0 140 0 140 -70 0 -70 0 0 -140z"/>
</g>
</svg>
